<svg xmlns="http://www.w3.org/2000/svg" version="1.0" viewBox="0 0 1024 1024"><g><path d="M454 49.6c-6.7 9.3-13.5 15.6-21.3 19.6-3.3 1.6-6 2.8-6.1 2.6-.1-.2-1.2-2.5-2.4-5.1-2-4.4-10.5-14.7-12.1-14.7-.4 0-.5 3.3-.3 7.4.4 8-.7 13-4 17.1l-2.1 2.6-2.7-4.8c-1.6-2.7-5.8-7.7-9.5-11.2-5.8-5.4-7.1-6.2-9.4-5.6-1.4.4-2.7.8-2.8.9-.2.1.6 2.1 1.7 4.4 2 4.1 2.8 13.6 1.2 14.6-.4.2-3.9-2-7.7-4.9-9.2-7.2-22.1-13.6-25.7-12.8-1.6.3-2.8.7-2.8.9 0 .3.9 3 1.9 6.2 2.4 7.2 1.7 11.7-3.5 21.8-4.4 8.6-4.5 8.6-15.4 4.9-6.8-2.3-16.8-3.3-18.3-1.9-.4.4.2 1.9 1.3 3.4 4 5.6 7 13.4 7 18.2 0 3-.4 4.8-1.2 4.8-.6 0-3.6-1.9-6.5-4.2-4-3-7.1-4.5-11.6-5.5-7.2-1.5-18.3-1.7-19.1-.4-.3.5 1.3 2 3.7 3.4 8.5 5 22.5 22.5 21.2 26.6-.6 1.9-.7 1.9-5.8-.5-3.7-1.7-6.9-2.4-11.2-2.4-8.2 0-9.6 1.1-5.1 3.9 3.9 2.5 8.6 7.6 8.6 9.5 0 .7-3.3 2.3-7.2 3.5-11.4 3.7-23.4 10.1-35.1 19-4 2.9-7.7 7.5-7.7 9.4 0 .2 5.6 3.9 12.5 8.3 6.9 4.3 12.5 8.2 12.5 8.5 0 .3-5 6.6-11.1 14-9.6 11.5-14.9 19.4-13.7 20.4.2.1 4.1 2.2 8.7 4.5l8.3 4.1-.5 4.7c-.3 2.6-1.3 8.1-2.2 12.2-1.8 8.2-1.7 9.2 2 33 1.4 8.5 3.6 23.8 5 34 3.3 23.8 4.9 31.2 9.1 42.9l3.4 9.5-2.4 2.6c-3.5 3.7-8.6 14.5-8.6 18.2 0 3.5 6.2 24.5 11.2 37.8 3 8.1 3.2 9.5 3.8 27.5.8 21.9 2.4 28.4 9 37.8 7.6 10.9 6.5 5.7 14.4 67.7 4.7 36.3 5 37.1 19.3 60.2 5.7 9.2 10.7 18.2 11 20.1.3 2.3-.1 4.6-1.5 7.3-3.2 6.3-12.9 19.4-19 25.7-5.3 5.4-9.2 8.6-33.7 26.8-12.2 9.1-15.9 12.8-23.8 24.1-5.5 7.9-8.1 10.6-14.5 15.1-32.5 22.6-55.9 38.9-68.7 47.7-26.4 18.1-39.3 28.1-40 30.7-.8 3.5 2.2 7.9 11.8 16.9 28.2 26.5 73 57.5 113.7 78.6 38.4 19.9 84.4 36.6 125.7 45.8 13.5 2.9 12.7 3.2 11.9-5-.3-3.8-2.9-16.1-5.6-27.2-7.9-31.7-8.5-45.2-2.7-54 3.8-5.6 5.6-5.1 23.1 6.7 8.6 5.8 19.2 12.3 23.6 14.5 8.1 4.1 19.5 7.8 20.6 6.7.9-.9-1.8-7.8-11.7-29.7-11.6-26.1-13-31-8.4-31 4.5 0 8.7 2.5 19.5 11.4 16.9 14 38.1 27.6 43.1 27.6 1.8 0 4.1-4.5 12.9-26 3.7-9.1 8.6-20.4 10.8-25.2l4-8.7-2.4-3.3c-1.3-1.8-7-7.4-12.6-12.4-6.2-5.4-10.4-9.9-10.6-11.3-.3-1.7 4.2-6.6 21.4-23.4 34.5-33.6 42.5-43.4 76.3-92.6 11.7-17.1 21.7-30.4 28.5-38 5.7-6.4 12.8-14.6 15.8-18.3 2.9-3.7 5.6-6.7 5.9-6.7.7-.1 1.1 2.6 3.9 28.4 2.2 19.6 6.2 44.8 8.5 53.4 1.2 4.7 2.5 6.4 10.3 14 10.6 10.2 12.2 13.7 12.9 28.6.4 7.4-.2 15.5-2.2 30.9-4 31.6-8.1 46.2-23.7 83.6-10.6 25.4-25.2 62.4-30.1 76.5-1.9 5.5-5.1 14.3-7 19.5-1.9 5.2-3.7 10.7-4.1 12.3-.6 2.5-.4 2.7 2.6 2.7 9.8 0 46.1-8.7 74.5-17.8 10.1-3.2 18.5-6.1 18.8-6.3.3-.3 0-18.8-.6-41.1-.7-22.3-.8-44.1-.4-48.4l.8-7.9 1.4 4c3.5 10 13.7 51.4 17.9 72.8 1 5.4 2.3 9.1 3.1 9.4 2 .8 39.1-17.9 57.8-29.2 33.2-19.9 58.4-39.8 86.5-67.9l17.5-17.6-1.5-2.8c-4-7-72.7-58.1-91.5-68-5.2-2.7-10.5-7.1-20.5-16.7-13.8-13.4-21.1-19.1-33.6-26.3-8-4.6-9.4-6.1-29.5-30.2-8-9.6-17.7-20.4-21.4-23.9-7.4-6.9-19.2-14.9-29.2-20-6.6-3.3-7.8-4.8-10.7-13.7l-1.7-5.2 3.5-10.8c4.7-14.5 5.3-17.5 7.1-33.8.9-7.7 1.8-14.3 2-14.7.3-.3 1.1-8 2-17 2.1-22.6 1.8-21.5 7.8-24.6 2.9-1.4 6.7-3.7 8.5-5.1 7.3-5.5 19.8-26.1 24.5-40.3 3-8.8 4.7-20.5 6.2-42.4 1.2-17.5 2.1-24.7 4.6-34.5 1.6-6.9 2.7-13.5 2.4-14.7-.7-3.1-5-7.9-10.2-11.5l-4.5-3.1.5-16.6c.4-15.4 1.1-21 6.7-55 1.4-8.4 3-11.2 7.9-13.9 2.3-1.3 4.1-2.9 4.1-3.5 0-.7-1.2-7.2-2.7-14.6l-2.6-13.4 6.8-6.1 6.8-6.2-8.4-5.4c-4.6-3-8.5-6.3-8.7-7.4-.5-2.3 4.7-7.7 11.6-12.2l5.4-3.5-2.4-1.8c-3-2.4-12.2-7-22-11.1-4.4-1.8-7.8-3.8-7.8-4.6 0-.7 2.2-3 4.9-5l4.9-3.7-2.1-4.4c-1.5-3.1-1.9-4.8-1.2-5.9.9-1.4 17-11.7 19.6-12.6 1.5-.5.2-3.1-2.2-4.6-1.2-.7-6-2-10.7-2.8-4.7-.9-10.1-2.2-12-2.9-3.7-1.6-3.7-3-.2-9 3.1-5.2 3.3-7.2 1.1-9.4-2.6-2.6-4.9-1.8-13.7 4.4-3.5 2.5-6.7 4.5-7.3 4.5-3.3 0 .9-13.2 7-22.3 9.8-14.4 12.9-19.2 12.9-20 0-.5-2.4-.6-5.7-.2-11.7 1.4-20.8 3.7-28.4 7.4l-7.9 3.7v-2.5c0-3.9 1.8-9.8 5.7-18.4 1.9-4.2 3.3-8.7 3.1-9.8-.3-1.9-.5-1.9-5.7.8-7.7 4-17.8 12.8-23.6 20.5l-4.9 6.6-1.7-8.2c-2.8-14-9.4-23.8-19.2-28.4-5.3-2.5-12.5-3.6-17.2-2.8l-3.5.7 3.4 3.3c3.5 3.2 8.2 12.3 7.1 13.5-1 .9-22.9 6.9-23.7 6.4-.5-.2-.8-1.5-.8-2.9 0-3.3 4.1-5 9.3-3.6 2.6.6 3.7.6 3.7-.2-.1-5.4-13.2-8.8-26-6.7-5.4.9-6.7.8-7.9-.4-1.3-1.3-1.1-1.9 1.7-5.4l3.2-4-2.3-1.5c-1.9-1.3-8.2-1.7-34.7-2.2-36.2-.7-55.8.3-66 3.5-3.5 1.1-6.5 1.9-6.6 1.8-.1-.1.4-2.5 1.2-5.2 2-7.5 1.7-16.5-.5-16.5-.4 0-3.1 3.4-6.1 7.6zm158 187.3c9.8 2.6 17.9 5.9 20.7 8.4 3.2 2.8 3.7 7.4 2.3 19.1l-1.2 10.1 3.1 7.6c4.3 10.7 4.6 14 2.3 23.9-1.1 4.7-2.3 12.9-2.7 18.3l-.7 9.8 4 4.3c15.5 16.8 25.2 51.2 25.2 89.1 0 15.4-1 26.1-4.6 49.1l-2.7 17.1 2.2 4.6 2.2 4.6-2.5 4.4c-2.2 3.7-2.6 5.6-2.6 12.2v7.7l2.6-.5c2.4-.4 2.5-.2 2 2.2-.4 1.4-1.3 12.9-2.1 25.6-2.2 35.2-4.1 44.6-11 54.9-1.9 2.8-12.9 14.5-24.4 25.9-22.1 21.9-32.2 33-46.3 51.2-9.3 12-18.8 21.5-24.6 24.4-3 1.5-5.1 1.8-10.6 1.4l-6.9-.6.7 4.2c.7 4.7.6 4.7-5.2.4-1.8-1.4-3.5-2.3-3.6-2.2-.2.2-1.3 2.3-2.5 4.7-2.4 4.7-2.9 4.7-9.9-.6-1.9-1.4-3.6-2.1-4.1-1.6-.4.5-2.9 3.7-5.7 7.1-2.7 3.5-5.2 6.3-5.6 6.3-.4 0-1-.9-1.3-2-.3-1.1-1.5-2.5-2.6-3.1-2.5-1.3-3.9-.3-7.4 5.7-1.4 2.4-3 4.4-3.5 4.4-.4 0-2.7-2.1-4.9-4.7l-4.1-4.6-4 1.3c-3.7 1.2-4 1.1-7.2-1.5-3.8-3.2-4.6-4.8-4.7-9.3-.2-6.6 3.6-9.7 13.3-10.8 5.2-.6 5.8-1 8.9-5.3l3.4-4.6 10.9-2.3c11.9-2.4 19.1-2.7 32.9-1.2 11.4 1.2 18-.1 20-4.1 1.4-2.5 1.2-2.7-2.7-5.3-4.5-3-8.9-4.1-19.7-5.1-6.2-.6-7.8-1.1-9.5-3.2-6.6-8-9-10.3-12.2-11.8-2-.9-4.3-1.3-5.2-.9-.9.4-7.6.9-14.7 1.1l-13.1.3-6.4-3.2c-5.4-2.7-6.6-3.8-6.8-6.1-.2-1.6.3-3.5 1-4.4 2.2-2.7 15-8.1 20.9-8.8 2.9-.4 9.7-1.6 15-2.6 9.6-1.9 9.9-1.9 24.5.1 17.2 2.3 20.4 3.1 25.3 6.3 2 1.3 5.3 3 7.5 3.7 3.4 1.1 4.1 1 6.5-.8 2.1-1.6 2.6-2.7 2.5-6.4 0-5.5-3-9.9-9.2-13.9-5.6-3.5-6.2-3.6-6.2-.4 0 1.4-.3 2.5-.6 2.5s-3.5-1.6-7-3.6c-6.4-3.6-6.9-3.5-6.4.9.1 1.7-.1 1.7-3.7.2-11-4.7-14.5-5.7-26.1-6.9-8.3-1-14.3-1.1-17.2-.6-7.2 1.4-24.6 1.2-28.4-.4-3.9-1.6-7.6-6-7.6-9 0-2.1 9.5-15.6 10.9-15.6.3.1 1.5 1.5 2.6 3.3 2.5 4 6.1 4.6 9.8 1.7 2.5-2 2.7-2.8 2.7-8.9 0-9.2 1.3-10.7 15-16.6 14.4-6.2 19.4-9.5 20.8-13.5 1.1-3 1-3.2-2.6-4.7-5-2.1-13-1.3-27.3 2.6-10.2 2.8-12.1 3.1-15.7 2.2-4.3-1.2-12.6-7-20.5-14.3-6-5.7-6-7.6-.3-19.9 7.5-16.1 8.2-20.1 10.5-61.4 1.3-22.4 3.8-29.5 10.3-29.5 6.6 0 16.1 7.9 19.9 16.5 2.7 6 6.5 8.9 16.1 12 13 4.3 15.5 6 28.9 19.1 13.8 13.6 19.4 17 35 21.3 9.4 2.6 10.3 2.6 9.6.1-.3-1.3.3-3.1 1.7-4.7l2.3-2.6-8.9-8.8c-7.7-7.7-16.8-19.6-16.8-22 0-.4 3.5-1.9 7.8-3.3 8.8-3 19.2-9 19.2-11.2 0-1.2-2.4-1.3-15.2-.8-12.7.5-15.6.4-17.2-.9-1.9-1.4-1.6-1.5 3.5-2.6 3-.7 9-1.7 13.4-2.2 4.4-.6 12.8-2 18.6-3.1 8.9-1.7 11.4-1.9 15.8-.9 15.9 3.4 28.5-1 23.7-8.3-.9-1.4-2.5-3-3.6-3.6-2.5-1.3-15.2-5-29.7-8.5-6.2-1.6-12.7-3.7-14.5-4.8l-3.3-2 2.5-1c1.4-.5 7.5-1 13.5-1.1l11-.1 11.5 5.1c17.3 7.7 18.4 8 21.6 5.5 1.5-1.2 3.5-2.1 4.6-2.1 2.1 0 6.8-4.6 6.8-6.6 0-.7-2.7-3.5-5.9-6.3-5.5-4.5-6.2-4.8-10.3-4.4-3.9.4-4.6.1-7.6-3s-3.8-3.4-7.6-3c-2.6.3-7.5-.3-12.4-1.6-6.6-1.7-11.1-2.1-23.9-2.1-11.9 0-18.1-.5-25.2-2-5.2-1.1-10.7-2-12.3-2-4.2 0-26.5 5.3-37.9 8.9-12.2 3.9-16.2 4-22.1.2-5.2-3.3-8.1-6.9-12.8-15.9-1.8-3.4-3.8-6.1-4.4-5.9-.6.2-1.2 3.2-1.3 6.8-.4 11-2.4 22.9-3.8 22.9-.7 0-7.8-2-15.7-4.4-7.8-2.5-18.8-5.7-24.3-7.2-11.5-3.1-18.5-5.9-18.5-7.3 0-3.1 11.9-7.6 18.5-6.9l3 .3V350.8l2.8-2.4c3.4-2.9 4.2-2.9 11.4-.4 6.2 2.2 6.7 2 8.7-1.8 2.2-4.5 2.6-10.3 1.1-16.7-1.9-8.1-1.9-8 1.6-5.1 5 4.3 9 5.9 14.6 6 7.7.1 8.2-1.2 3-7-5.3-6-7.7-9.4-7.7-11.1 0-.7 1.8-1.8 4-2.4 2.2-.7 4-1.8 4-2.6 0-.7-2.8-4.6-6.1-8.6-6.6-7.7-12.9-19.4-12.9-23.9 0-2 .8-3.1 2.8-4.1 2.4-1.3 20.3-6.7 32-9.7 2.4-.6 6.9-2.4 10-4 3.2-1.5 8.5-3.9 11.9-5.3l6.1-2.5.4 12.7c.3 10.7.7 13.3 2.6 17.3 3.6 7.3 7.5 7.5 8.6.5.9-5.5 3.9-12 7.7-16.8 6.1-7.8 19.4-15.6 29.4-17.3 2.2-.4 6.9-2.4 10.5-4.3 11.2-6.2 16.1-7.4 28-6.9 6 .3 13.7 1.3 18 2.5zm104 139.6 2.3 2.5-1.9 3.5c-1 2-3.7 5.7-5.8 8.3-4.8 5.7-9.6 13.2-9.6 14.8 0 .6 1.4 1.7 3.1 2.4 2.5 1.1 3.5 1.1 5.2.1 2-1.3 2-1.2 1.4 19.6-.7 29.5-2.2 36.2-11.9 53.4-8.1 14.4-12.7 20.3-16.1 20.7-1.8.2-2.9-.2-3.3-1.2-.4-.9.1-8.7 1-17.4s1.6-20.8 1.6-27v-11.3l2.8 3.3c5.3 6.3 5.7 7.1 6.2 12.7l.5 5.6 3.4-5.3 3.4-5.4-.6-19.5c-.3-10.7-.8-19.8-1.2-20.1-.3-.3-3.2 2.2-6.6 5.6-3.3 3.4-6.3 6.2-6.8 6.2-1 0 1.3-12.7 3.4-18.9 1.9-5.7 14.6-25.4 19.8-30.9 4.7-4.9 6.4-5.2 9.7-1.7zm-271.7 260c6.9 3.2 8.2.5-21 42.4-19.4 28-51.5 72.2-53.7 74-2.3 2-8.4.4-11.8-2.9-4.1-4.2-3.8-8.2 1.4-15.6 2.2-3.2 18.5-26.6 36.1-51.9 17.5-25.3 32.7-46.6 33.6-47.3 2.1-1.8 10.5-1.1 15.4 1.3z"/><path d="M518.7 537.6c-1.2 1.2-.8 6.3.8 9.3 1.7 3.4 12.5 13.3 13.9 12.8.5-.2 1.4-1 1.9-1.9.8-1.2-.2-3-4.5-7.9-3.1-3.5-6.9-7.9-8.5-9.7-1.5-1.9-3.2-3-3.6-2.6z"/></g></svg>