<svg xmlns="http://www.w3.org/2000/svg" viewBox="0 0 512 512" style="enable-background:new 0 0 512 512" xml:space="preserve"><path style="fill:#303c42" d="M256 0C114.844 0 0 114.844 0 256s114.844 256 256 256 256-114.844 256-256S397.156 0 256 0z"/><path style="fill:#e6e6e6" d="M256 21.333c129.396 0 234.667 105.271 234.667 234.667 0 51.508-16.878 99.038-45.121 137.781-2.467-1.605-4.905-3.069-7.379-4.344-42.75-21.947-109.063-48.104-182.167-48.104S116.583 367.49 73.823 389.448c-2.467 1.27-4.902 2.73-7.368 4.333C38.212 355.036 21.333 307.508 21.333 256 21.333 126.604 126.604 21.333 256 21.333z"/><path style="fill:#1e88e5" d="M256 490.667c-70.161 0-133.056-31.108-176.095-80.073 1.227-.743 2.464-1.551 3.678-2.177 40.656-20.875 103.573-45.75 172.417-45.75s131.76 24.875 172.406 45.74c1.22.63 2.46 1.439 3.69 2.186-43.04 48.964-105.935 80.074-176.096 80.074z"/><circle style="fill:#303c42" cx="256" cy="192" r="128"/><linearGradient id="a" gradientUnits="userSpaceOnUse" x1="-33.539" y1="631.086" x2="-28.054" y2="625.6" gradientTransform="matrix(21.3333 0 0 -21.3333 996.333 13791.667)"><stop offset="0" style="stop-color:#000;stop-opacity:.1"/><stop offset="1" style="stop-color:#000;stop-opacity:0"/></linearGradient><path style="fill:url(#a)" d="M352.73 469.59a236.745 236.745 0 0 0 79.366-58.997c-1.23-.747-2.47-1.556-3.69-2.186-40.646-20.865-103.563-45.74-172.406-45.74-3.296 0-6.501.314-9.768.424L352.73 469.59z"/><circle style="fill:#1e88e5" cx="256" cy="192" r="106.667"/><path style="opacity:.1;enable-background:new" d="M313.184 102.263c4.176 11.41 6.816 23.565 6.816 36.404 0 58.815-47.85 106.667-106.667 106.667-21.077 0-40.621-6.339-57.184-16.93 14.956 40.861 53.872 70.263 99.85 70.263 58.816 0 106.667-47.852 106.667-106.667.001-37.74-19.825-70.771-49.482-89.737z"/><linearGradient id="b" gradientUnits="userSpaceOnUse" x1="-45.578" y1="639.555" x2="-23.828" y2="629.414" gradientTransform="matrix(21.3333 0 0 -21.3333 996.333 13791.667)"><stop offset="0" style="stop-color:#fff;stop-opacity:.2"/><stop offset="1" style="stop-color:#fff;stop-opacity:0"/></linearGradient><path style="fill:url(#b)" d="M256 0C114.844 0 0 114.844 0 256s114.844 256 256 256 256-114.844 256-256S397.156 0 256 0z"/></svg>